# xmcd
#
# Track frame offsets:
#	150
#	16429
#	58379
#	88640
#	129097
#	158646
#	185667
#	199397
#	212133
#
# Disc length: 3099 seconds
#
# Revision: 0
# Processed by: cddbd v1.5PL3 Copyright (c) Steve Scherf et al.
# Submitted via: dBpowerAMP V4.0
#
DISCID=7e0c1909
DTITLE=Παπουτσάκης - Το σύνθημα
DYEAR=1900
DGENRE=
TTITLE0=Οι 5 μερακλήδες
TTITLE1=Δεν ξημερώνει
TTITLE2=Για σένα κλαίω και πονώ
TTITLE3=Πάλι τα μαύρα εφόρεσες
TTITLE4=Σύνθημα
TTITLE5=Είναι στιγμές
TTITLE6=Πάρε το πλοίο της γραμμής
TTITLE7=Θα σου 'λεγα το μυστικό
TTITLE8=Μαλεβυζιώτης
EXTD=Παπουτσάκης-Το σύνθημα(Κρητικά)
EXTT0=
EXTT1=
EXTT2=
EXTT3=
EXTT4=
EXTT5=
EXTT6=
EXTT7=
EXTT8=
PLAYORDER=
